<mxfile host="app.diagrams.net" modified="2021-12-03T18:02:57.256Z" agent="5.0 (Macintosh; Intel Mac OS X 11_2_3) AppleWebKit/537.36 (KHTML, like Gecko) Chrome/89.0.4389.114 Safari/537.36" etag="eDUgvhReZ7BQUrECNNll" version="15.9.1" type="github">
  <diagram id="a0T8xK7EbyOjU0qBz719" name="Page-1">
    <mxGraphModel dx="618" dy="397" grid="1" gridSize="10" guides="1" tooltips="1" connect="1" arrows="1" fold="1" page="1" pageScale="1" pageWidth="827" pageHeight="1169" math="0" shadow="0">
      <root>
        <mxCell id="0" />
        <mxCell id="1" parent="0" />
        <mxCell id="hqwXjDyqVPsbb0LtHAZh-8" value="" style="verticalLabelPosition=bottom;verticalAlign=top;html=1;shadow=0;dashed=0;strokeWidth=1;shape=mxgraph.android.phone2;strokeColor=#c0c0c0;" vertex="1" parent="1">
          <mxGeometry x="30" y="40" width="200" height="390" as="geometry" />
        </mxCell>
        <mxCell id="hqwXjDyqVPsbb0LtHAZh-10" value="" style="ellipse;whiteSpace=wrap;html=1;aspect=fixed;" vertex="1" parent="1">
          <mxGeometry x="50" y="90" width="30" height="30" as="geometry" />
        </mxCell>
        <mxCell id="hqwXjDyqVPsbb0LtHAZh-11" value="" style="shape=umlActor;verticalLabelPosition=bottom;verticalAlign=top;html=1;outlineConnect=0;" vertex="1" parent="1">
          <mxGeometry x="60" y="95" width="10" height="20" as="geometry" />
        </mxCell>
        <mxCell id="hqwXjDyqVPsbb0LtHAZh-12" value="Diver name" style="text;html=1;strokeColor=none;fillColor=none;align=left;verticalAlign=middle;whiteSpace=wrap;rounded=0;" vertex="1" parent="1">
          <mxGeometry x="85" y="90" width="90" height="30" as="geometry" />
        </mxCell>
        <mxCell id="hqwXjDyqVPsbb0LtHAZh-13" value="&amp;nbsp; Maldives (10.11.2021)" style="rounded=0;whiteSpace=wrap;html=1;align=left;" vertex="1" parent="1">
          <mxGeometry x="50" y="130" width="160" height="30" as="geometry" />
        </mxCell>
        <mxCell id="hqwXjDyqVPsbb0LtHAZh-14" value="&amp;nbsp; Egypt (20.10.2021)" style="rounded=0;whiteSpace=wrap;html=1;align=left;" vertex="1" parent="1">
          <mxGeometry x="50" y="170" width="160" height="30" as="geometry" />
        </mxCell>
        <mxCell id="hqwXjDyqVPsbb0LtHAZh-15" value="&amp;nbsp; Egypt (20.10.2021)" style="rounded=0;whiteSpace=wrap;html=1;align=left;" vertex="1" parent="1">
          <mxGeometry x="50" y="210" width="160" height="30" as="geometry" />
        </mxCell>
        <mxCell id="hqwXjDyqVPsbb0LtHAZh-16" value="&amp;nbsp; Egypt (20.10.2021)" style="rounded=0;whiteSpace=wrap;html=1;align=left;" vertex="1" parent="1">
          <mxGeometry x="50" y="250" width="160" height="30" as="geometry" />
        </mxCell>
        <mxCell id="hqwXjDyqVPsbb0LtHAZh-17" value="DIVE" style="rounded=1;whiteSpace=wrap;html=1;fontSize=20;" vertex="1" parent="1">
          <mxGeometry x="50" y="350" width="160" height="30" as="geometry" />
        </mxCell>
        <mxCell id="hqwXjDyqVPsbb0LtHAZh-19" value="" style="verticalLabelPosition=bottom;verticalAlign=top;html=1;shadow=0;dashed=0;strokeWidth=1;shape=mxgraph.android.phone2;strokeColor=#c0c0c0;" vertex="1" parent="1">
          <mxGeometry x="270" y="40" width="200" height="390" as="geometry" />
        </mxCell>
        <mxCell id="hqwXjDyqVPsbb0LtHAZh-26" value="&lt;p&gt;&lt;font style=&quot;font-size: 12px ; line-height: 1&quot; color=&quot;#9e9e9e&quot;&gt;&amp;nbsp; Title&lt;/font&gt;&lt;/p&gt;" style="rounded=0;whiteSpace=wrap;html=1;fontSize=20;align=left;" vertex="1" parent="1">
          <mxGeometry x="290" y="130" width="160" height="30" as="geometry" />
        </mxCell>
        <mxCell id="hqwXjDyqVPsbb0LtHAZh-27" value="&lt;p&gt;&lt;font style=&quot;font-size: 12px ; line-height: 1&quot; color=&quot;#9e9e9e&quot;&gt;&amp;nbsp; Location&lt;/font&gt;&lt;/p&gt;" style="rounded=0;whiteSpace=wrap;html=1;fontSize=20;align=left;" vertex="1" parent="1">
          <mxGeometry x="290" y="170" width="160" height="30" as="geometry" />
        </mxCell>
      </root>
    </mxGraphModel>
  </diagram>
</mxfile>
